<svg width="152" height="38" viewBox="0 0 152 38" fill="none" xmlns="http://www.w3.org/2000/svg">
<path d="M0.878784 28.1818L0.878787 9.39392L10.2727 14.6128V23.0151L17.7879 27.2424L25.303 23.0151V14.6128L34.697 9.39392V28.1818L17.7879 37.5757L0.878784 28.1818Z" fill="#0052CC"/>
<path fill-rule="evenodd" clip-rule="evenodd" d="M5.57576 12.0034L0.878784 9.39394L17.7879 0L34.697 9.39394L30 12.0034V25.8333L17.7879 32.8788L5.57575 25.8333L5.57576 12.0034ZM29.4912 12.2861L25.303 14.6128V14.5606L17.7879 10.3333L10.2727 14.5606V14.6128L6.08459 12.2861V25.5443L17.7879 32.2962L29.4912 25.5443V12.2861Z" fill="url(#paint0_linear_2004_1154)"/>
<path d="M55.589 10.8878H58.449V26.2878H55.589V10.8878ZM47.625 26.2878H44.765V10.8878H47.625V26.2878ZM55.809 19.6878H47.383V17.2458H55.809V19.6878ZM63.4995 30.7098C62.9275 30.7098 62.3555 30.6145 61.7835 30.4238C61.2115 30.2332 60.7349 29.9692 60.3535 29.6318L61.4535 27.6078C61.7322 27.8572 62.0475 28.0552 62.3995 28.2018C62.7515 28.3485 63.1109 28.4218 63.4775 28.4218C63.9762 28.4218 64.3795 28.2972 64.6875 28.0478C64.9955 27.7985 65.2815 27.3805 65.5455 26.7938L66.2275 25.2538L66.4475 24.9238L70.8915 14.5398H73.5315L68.0315 27.2338C67.6649 28.1138 67.2542 28.8105 66.7995 29.3238C66.3595 29.8372 65.8609 30.1965 65.3035 30.4018C64.7609 30.6072 64.1595 30.7098 63.4995 30.7098ZM65.9195 26.7058L60.6175 14.5398H63.4775L67.7895 24.6818L65.9195 26.7058ZM81.9823 26.4418C81.029 26.4418 80.1563 26.2218 79.3643 25.7818C78.587 25.3418 77.9636 24.6818 77.4943 23.8018C77.0396 22.9072 76.8123 21.7778 76.8123 20.4138C76.8123 19.0352 77.0323 17.9058 77.4723 17.0258C77.927 16.1458 78.543 15.4932 79.3203 15.0678C80.0976 14.6278 80.985 14.4078 81.9823 14.4078C83.141 14.4078 84.1603 14.6572 85.0403 15.1558C85.935 15.6545 86.639 16.3512 87.1523 17.2458C87.6803 18.1405 87.9443 19.1965 87.9443 20.4138C87.9443 21.6312 87.6803 22.6945 87.1523 23.6038C86.639 24.4985 85.935 25.1952 85.0403 25.6938C84.1603 26.1925 83.141 26.4418 81.9823 26.4418ZM75.4703 30.5558V14.5398H78.0883V17.3118L78.0003 20.4358L78.2203 23.5598V30.5558H75.4703ZM81.6743 24.0878C82.3343 24.0878 82.921 23.9412 83.4343 23.6478C83.9623 23.3545 84.3803 22.9292 84.6883 22.3718C84.9963 21.8145 85.1503 21.1618 85.1503 20.4138C85.1503 19.6512 84.9963 18.9985 84.6883 18.4558C84.3803 17.8985 83.9623 17.4732 83.4343 17.1798C82.921 16.8865 82.3343 16.7398 81.6743 16.7398C81.0143 16.7398 80.4203 16.8865 79.8923 17.1798C79.3643 17.4732 78.9463 17.8985 78.6383 18.4558C78.3303 18.9985 78.1763 19.6512 78.1763 20.4138C78.1763 21.1618 78.3303 21.8145 78.6383 22.3718C78.9463 22.9292 79.3643 23.3545 79.8923 23.6478C80.4203 23.9412 81.0143 24.0878 81.6743 24.0878ZM96.2943 26.4418C94.989 26.4418 93.845 26.1852 92.8623 25.6718C91.8943 25.1438 91.139 24.4252 90.5963 23.5158C90.0683 22.6065 89.8043 21.5725 89.8043 20.4138C89.8043 19.2405 90.061 18.2065 90.5743 17.3118C91.1023 16.4025 91.821 15.6912 92.7303 15.1778C93.6543 14.6645 94.703 14.4078 95.8763 14.4078C97.0203 14.4078 98.0397 14.6572 98.9343 15.1558C99.829 15.6545 100.533 16.3585 101.046 17.2678C101.56 18.1772 101.816 19.2478 101.816 20.4798C101.816 20.5972 101.809 20.7292 101.794 20.8758C101.794 21.0225 101.787 21.1618 101.772 21.2938H91.9823V19.4678H100.32L99.2423 20.0398C99.257 19.3652 99.1177 18.7712 98.8243 18.2578C98.531 17.7445 98.1277 17.3412 97.6143 17.0478C97.1157 16.7545 96.5363 16.6078 95.8763 16.6078C95.2017 16.6078 94.6077 16.7545 94.0943 17.0478C93.5957 17.3412 93.1997 17.7518 92.9063 18.2798C92.6277 18.7932 92.4883 19.4018 92.4883 20.1058V20.5458C92.4883 21.2498 92.6497 21.8732 92.9723 22.4158C93.295 22.9585 93.7497 23.3765 94.3363 23.6698C94.923 23.9632 95.5977 24.1098 96.3603 24.1098C97.0203 24.1098 97.6143 24.0072 98.1423 23.8018C98.6703 23.5965 99.1397 23.2738 99.5503 22.8338L101.024 24.5278C100.496 25.1438 99.829 25.6205 99.0223 25.9578C98.2303 26.2805 97.321 26.4418 96.2943 26.4418ZM104.678 26.2878V14.5398H107.296V17.7738L106.988 16.8278C107.34 16.0358 107.89 15.4345 108.638 15.0238C109.401 14.6132 110.347 14.4078 111.476 14.4078V17.0258C111.359 16.9965 111.249 16.9818 111.146 16.9818C111.043 16.9672 110.941 16.9598 110.838 16.9598C109.797 16.9598 108.968 17.2678 108.352 17.8838C107.736 18.4852 107.428 19.3872 107.428 20.5898V26.2878H104.678ZM120.695 14.4078C121.633 14.4078 122.469 14.5912 123.203 14.9578C123.951 15.3245 124.537 15.8892 124.963 16.6518C125.388 17.3998 125.601 18.3678 125.601 19.5558V26.2878H122.851V19.9078C122.851 18.8665 122.601 18.0892 122.103 17.5758C121.619 17.0625 120.937 16.8058 120.057 16.8058C119.411 16.8058 118.839 16.9378 118.341 17.2018C117.842 17.4658 117.453 17.8618 117.175 18.3898C116.911 18.9032 116.779 19.5558 116.779 20.3478V26.2878H114.029V14.5398H116.647V17.7078L116.185 16.7398C116.595 15.9918 117.189 15.4198 117.967 15.0238C118.759 14.6132 119.668 14.4078 120.695 14.4078ZM134.853 26.4418C133.547 26.4418 132.403 26.1852 131.421 25.6718C130.453 25.1438 129.697 24.4252 129.155 23.5158C128.627 22.6065 128.363 21.5725 128.363 20.4138C128.363 19.2405 128.619 18.2065 129.133 17.3118C129.661 16.4025 130.379 15.6912 131.289 15.1778C132.213 14.6645 133.261 14.4078 134.435 14.4078C135.579 14.4078 136.598 14.6572 137.493 15.1558C138.387 15.6545 139.091 16.3585 139.605 17.2678C140.118 18.1772 140.375 19.2478 140.375 20.4798C140.375 20.5972 140.367 20.7292 140.353 20.8758C140.353 21.0225 140.345 21.1618 140.331 21.2938H130.541V19.4678H138.879L137.801 20.0398C137.815 19.3652 137.676 18.7712 137.383 18.2578C137.089 17.7445 136.686 17.3412 136.173 17.0478C135.674 16.7545 135.095 16.6078 134.435 16.6078C133.76 16.6078 133.166 16.7545 132.653 17.0478C132.154 17.3412 131.758 17.7518 131.465 18.2798C131.186 18.7932 131.047 19.4018 131.047 20.1058V20.5458C131.047 21.2498 131.208 21.8732 131.531 22.4158C131.853 22.9585 132.308 23.3765 132.895 23.6698C133.481 23.9632 134.156 24.1098 134.919 24.1098C135.579 24.1098 136.173 24.0072 136.701 23.8018C137.229 23.5965 137.698 23.2738 138.109 22.8338L139.583 24.5278C139.055 25.1438 138.387 25.6205 137.581 25.9578C136.789 26.2805 135.879 26.4418 134.853 26.4418ZM147.658 26.4418C146.368 26.4418 145.37 26.1118 144.666 25.4518C143.962 24.7772 143.61 23.7872 143.61 22.4818V11.9438H146.36V22.4158C146.36 22.9732 146.5 23.4058 146.778 23.7138C147.072 24.0218 147.475 24.1758 147.988 24.1758C148.604 24.1758 149.118 24.0145 149.528 23.6918L150.298 25.6498C149.976 25.9138 149.58 26.1118 149.11 26.2438C148.641 26.3758 148.157 26.4418 147.658 26.4418ZM141.674 16.8278V14.6278H149.506V16.8278H141.674Z" fill="#0052CC"/>
<defs>
<linearGradient id="paint0_linear_2004_1154" x1="5.57575" y1="7.30638" x2="30.9394" y2="7.30639" gradientUnits="userSpaceOnUse">
<stop stop-color="#64C2DB"/>
<stop offset="0.307292" stop-color="#7476ED"/>
<stop offset="0.604167" stop-color="#0052CC"/>
<stop offset="1" stop-color="#0052CC"/>
</linearGradient>
</defs>
</svg>
